<svg width="35" height="48" viewBox="0 0 35 48" fill="none" xmlns="http://www.w3.org/2000/svg">
<path fill-rule="evenodd" clip-rule="evenodd" d="M11.9998 44.1269L11.9999 7.93658C11.9871 7.28936 12.1042 6.64614 12.3443 6.04498C12.5845 5.44382 12.9427 4.89692 13.3979 4.43665C13.8531 3.97638 14.396 3.61208 14.9945 3.36532C15.5929 3.11855 16.2348 2.99433 16.8821 3H24.2698C24.0627 2.15287 23.5801 1.39853 22.8977 0.85551C22.2154 0.31249 21.3719 0.01156 20.4999 0H3.9C2.86566 0 1.87368 0.41089 1.14228 1.14228C0.410892 1.87368 0 2.86566 0 3.9V44.0999C0 45.1343 0.410892 46.1262 1.14228 46.8576C1.87368 47.589 2.86566 47.9999 3.9 47.9999H13.9208C13.3155 47.5538 12.8255 46.9696 12.4914 46.296C12.1572 45.6224 11.9887 44.8787 11.9998 44.1269ZM10 7.5C10 7.8283 9.93534 8.1534 9.8097 8.4567C9.68406 8.76 9.49991 9.0356 9.26777 9.2678C9.03562 9.4999 8.76002 9.6841 8.45671 9.8097C8.15339 9.9353 7.8283 10 7.5 10H4.5C3.83696 10 3.20107 9.7366 2.73223 9.2678C2.26339 8.7989 2 8.163 2 7.5V4.5C2 3.83696 2.26339 3.20107 2.73223 2.73223C3.20107 2.26339 3.83696 2 4.5 2H7.5C8.16304 2 8.79893 2.26339 9.26777 2.73223C9.73661 3.20107 10 3.83696 10 4.5V7.5ZM30.177 18H17.823C17.3282 18.0124 16.8586 18.2203 16.5169 18.5783C16.1752 18.9363 15.9893 19.4152 16 19.91V43.09C15.9893 43.5848 16.1752 44.0637 16.5169 44.4217C16.8586 44.7797 17.3283 44.9876 17.8231 45H30.1769C30.6717 44.9876 31.1414 44.7797 31.4831 44.4217C31.8248 44.0637 32.0107 43.5848 32 43.09V19.91C32.0107 19.4152 31.8248 18.9363 31.4831 18.5783C31.1414 18.2203 30.6718 18.0124 30.177 18ZM16.8829 4.00964H31.1171C31.6284 4.00997 32.1346 4.1112 32.6066 4.30752C33.0787 4.50385 33.5073 4.79141 33.8681 5.15372C34.2288 5.51603 34.5144 5.94596 34.7087 6.41889C34.9029 6.89181 35.0019 7.39842 35 7.90967V44.1008C35.0019 44.6119 34.9029 45.1184 34.7087 45.5912C34.5145 46.064 34.2289 46.4939 33.8683 46.8561C33.5077 47.2183 33.0791 47.5058 32.6071 47.7021C32.1352 47.8984 31.6291 47.9996 31.118 47.9999H16.8828C15.853 47.9999 14.8654 47.5909 14.1373 46.8627C13.4091 46.1345 13 45.1469 13 44.1171L13.0001 7.89246C13.0001 7.38256 13.1005 6.87765 13.2957 6.40657C13.4908 5.93548 13.7768 5.50744 14.1374 5.14689C14.4979 4.78633 14.926 4.50033 15.397 4.3052C15.8681 4.11007 16.373 4.00964 16.8829 4.00964ZM15.7322 6.73223C15.2634 7.20107 15 7.83696 15 8.5V11.5C15 12.163 15.2634 12.7989 15.7322 13.2678C16.2011 13.7366 16.837 14 17.5 14H20.5C21.163 14 21.7989 13.7366 22.2678 13.2678C22.7366 12.7989 23 12.163 23 11.5V8.5C23 7.83696 22.7366 7.20107 22.2678 6.73223C21.7989 6.26339 21.163 6 20.5 6H17.5C16.837 6 16.2011 6.26339 15.7322 6.73223ZM32.191 45.1295C32.7203 44.5838 33.0113 43.8502 33 43.09V19.91C33.0114 19.1498 32.7204 18.4162 32.191 17.8705C31.6616 17.3248 30.9372 17.0117 30.177 17H17.823C17.0628 17.0117 16.3384 17.3248 15.809 17.8705C15.2796 18.4162 14.9886 19.1498 15 19.91V43.09C14.9886 43.8502 15.2797 44.5838 15.809 45.1295C16.3384 45.6752 17.0629 45.9883 17.8231 46H30.1769C30.9371 45.9883 31.6616 45.6752 32.191 45.1295Z" fill="white"/>
</svg>
