<svg width="45" height="30" viewBox="0 0 45 30" fill="none" xmlns="http://www.w3.org/2000/svg">
<path d="M10.3422 27.8821C10.3707 28.3095 10.5473 28.7137 10.8418 29.0259C11.1364 29.338 11.5306 29.5385 11.9572 29.5934H13.8045C14.284 29.5359 14.7246 29.3022 15.0401 28.9381C15.3555 28.574 15.5231 28.1056 15.5101 27.6249V16.7272C13.8683 17.3881 12.113 17.7246 10.3422 17.7179V27.8821ZM15.1597 0.00116521C13.1019 -0.0271348 11.081 0.545465 9.34622 1.64816C7.67041 2.57316 6.19859 3.82457 5.01842 5.32787C6.00653 5.57567 6.93676 6.01266 7.75724 6.61436C8.64657 7.21526 9.39914 7.99556 9.96635 8.90466C10.8059 10.042 11.3516 11.3675 11.5554 12.7644C11.7026 13.5294 11.7026 14.3153 11.5554 15.0803C11.5056 15.3925 11.4233 15.6986 11.3099 15.9938C12.8034 15.8717 14.2705 15.5291 15.663 14.9774L16.0248 14.7715C17.1371 14.087 18.1685 13.28 19.0995 12.3655L19.2287 12.2113C20.4074 11.0315 21.1379 9.48067 21.2958 7.82376C21.388 5.99156 20.8652 4.18086 19.8101 2.67706C17.7948 0.258265 16.0893 0.000764668 15.1722 0.000764668L15.1597 0.00116521ZM17.9808 5.45646L15.1904 7.46356C14.9501 7.63946 14.6496 7.71316 14.3548 7.66856C14.06 7.62396 13.7951 7.46466 13.6182 7.22556V7.21916C13.4428 6.96216 13.3708 6.64907 13.4163 6.34167C13.4617 6.03437 13.6214 5.75516 13.8636 5.55936L16.6023 3.53946C16.8582 3.38736 17.162 3.33656 17.4537 3.39706C17.7454 3.45766 18.0036 3.62516 18.177 3.86646C18.3505 4.10766 18.4266 4.40506 18.3902 4.69956C18.3539 4.99406 18.2077 5.26426 17.9808 5.45646ZM10.4698 13.1762C10.2177 11.7658 9.61853 10.4396 8.72579 9.31627C8.2556 8.56567 7.65134 7.90726 6.94291 7.37356C6.35666 6.93386 5.66744 6.65046 4.94048 6.55006C4.37669 6.45696 3.79789 6.52846 3.27402 6.75596C2.01102 7.34426 1.00916 8.37426 0.458958 9.65026C0.202913 10.2646 0.0497379 10.9165 0.00552746 11.5802C-0.0189022 12.1004 0.037749 12.6212 0.173453 13.1241C0.239814 13.3608 0.321828 13.5929 0.418955 13.8189C0.653552 14.3522 0.948245 14.8572 1.29736 15.3242C1.71891 15.9509 2.23788 16.5069 2.83482 16.9712C3.87506 17.7512 5.16739 18.1222 6.46492 18.0134C7.18089 17.9839 7.88184 17.7995 8.51905 17.473C9.13586 17.2179 9.64966 16.7651 9.9789 16.1863C10.4919 15.2805 10.6658 14.2229 10.4698 13.2014V13.1762ZM4.32557 16.0068C3.86347 15.9025 3.42782 15.7047 3.04559 15.4259C2.66337 15.147 2.34272 14.7929 2.10354 14.3856C1.82137 14.0244 1.61434 13.6108 1.49457 13.1689C1.37479 12.7271 1.34465 12.2659 1.40594 11.8124C1.58676 11.2206 2.27146 11.2334 2.69778 11.8124L4.81645 14.7201C5.14075 15.3248 4.89525 16.0582 4.32691 16.0068H4.32557ZM34.6613 17.705C32.8913 17.7162 31.1361 17.384 29.4936 16.7272V27.6249C29.4804 28.1059 29.6482 28.5744 29.964 28.9385C30.2798 29.3027 30.7208 29.5362 31.2004 29.5934H33.0478C33.4698 29.5388 33.8603 29.3417 34.1539 29.0349C34.4476 28.7281 34.6267 28.3303 34.6613 27.9079V17.705ZM33.3695 15.119C33.23 14.3749 33.23 13.6115 33.3695 12.8674C33.5726 11.4703 34.1184 10.1446 34.9585 9.00756C35.5358 8.05286 36.3163 7.23596 37.2451 6.61436C38.0655 6.01266 38.9958 5.57567 39.9839 5.32787C38.8035 3.82487 37.3316 2.57356 35.6561 1.64816C33.9181 0.543265 31.8927 -0.0294348 29.831 0.00116521C28.9008 0.00116521 27.2473 0.245665 25.1673 2.67747C24.1117 4.18097 23.589 5.99187 23.6816 7.82417C23.8389 9.48116 24.5697 11.0322 25.7488 12.2116L25.878 12.3659C26.8084 13.2809 27.8399 14.0881 28.9526 14.7719L29.3144 14.9778C30.7068 15.5297 32.1739 15.8722 33.6675 15.9942C33.5396 15.7175 33.4401 15.4287 33.3705 15.1322L33.3695 15.119ZM31.4039 7.20617C31.3173 7.32527 31.2081 7.42627 31.0822 7.50327C30.9565 7.58037 30.8168 7.63196 30.671 7.65516C30.5252 7.67846 30.3763 7.67287 30.2327 7.63877C30.089 7.60457 29.9535 7.54267 29.8339 7.45637L27.0242 5.45696C26.7937 5.26746 26.6437 4.99827 26.6042 4.70337C26.5645 4.40837 26.6382 4.10947 26.8106 3.86637C26.9829 3.62327 27.2411 3.45396 27.5334 3.39236C27.8257 3.33076 28.1306 3.38147 28.387 3.53427L31.1258 5.55426C31.3766 5.72406 31.5498 5.98557 31.608 6.28197C31.666 6.57837 31.6042 6.88566 31.4359 7.13676L31.4039 7.20617ZM44.5055 9.70226C43.9559 8.44776 42.9694 7.43336 41.728 6.84596C41.2043 6.61876 40.6257 6.54726 40.0621 6.64006C39.335 6.73996 38.6457 7.02346 38.0597 7.46356C37.3504 7.99646 36.746 8.65497 36.2762 9.40606C35.3825 10.5288 34.7831 11.8553 34.5322 13.266C34.3257 14.2844 34.4907 15.3427 34.9973 16.2509C35.3259 16.8302 35.8398 17.2832 36.4571 17.5376C37.1069 17.8462 37.817 18.0088 38.5371 18.0136C39.8286 18.1229 41.1156 17.7566 42.1542 16.9843C42.7564 16.5169 43.2797 15.9568 43.7047 15.3252C44.0485 14.8571 44.3387 14.3521 44.5701 13.8198C44.6662 13.5935 44.7482 13.3615 44.8156 13.1251C44.955 12.6227 45.016 12.1019 44.9964 11.5811C44.9386 10.932 44.7726 10.2971 44.5055 9.70226ZM42.9016 14.4373C42.6545 14.8458 42.3267 15.2001 41.9381 15.4788C41.5496 15.7575 41.1082 15.9547 40.6408 16.0585C40.0724 16.0585 39.8269 15.3766 40.2016 14.7718L42.3202 11.8644C42.6949 11.2468 43.3796 11.234 43.6122 11.8644C43.6709 12.3188 43.6384 12.7802 43.5164 13.2218C43.3944 13.6635 43.1854 14.0768 42.9016 14.4373Z" fill="white"/>
</svg>
