<svg width="29" height="28" viewBox="0 0 29 28" fill="none" xmlns="http://www.w3.org/2000/svg">
<path d="M14.5 0.5C11.7805 0.5 9.12209 1.30642 6.86092 2.81729C4.59974 4.32816 2.83737 6.47562 1.79666 8.9881C0.755958 11.5006 0.483662 14.2653 1.01421 16.9325C1.54476 19.5997 2.85432 22.0497 4.77729 23.9727C6.70026 25.8957 9.15028 27.2053 11.8175 27.7358C14.4848 28.2663 17.2494 27.994 19.7619 26.9533C22.2744 25.9126 24.4218 24.1503 25.9327 21.8891C27.4436 19.6279 28.25 16.9695 28.25 14.25C28.25 10.6033 26.8013 7.10591 24.2227 4.52728C21.6441 1.94866 18.1467 0.5 14.5 0.5ZM14.5 26.35C12.1069 26.35 9.76744 25.6403 7.77761 24.3108C5.78777 22.9812 4.23688 21.0915 3.32106 18.8805C2.40524 16.6695 2.16562 14.2366 2.6325 11.8894C3.09939 9.54224 4.2518 7.38622 5.94401 5.69401C7.63623 4.00179 9.79224 2.84938 12.1394 2.3825C14.4866 1.91562 16.9195 2.15524 19.1305 3.07106C21.3415 3.98688 23.2312 5.53776 24.5608 7.5276C25.8904 9.51743 26.6 11.8568 26.6 14.25C26.5963 17.458 25.3203 20.5335 23.0519 22.8019C20.7835 25.0703 17.708 26.3463 14.5 26.35ZM14.5 3.25C12.3244 3.25 10.1977 3.89514 8.38873 5.10383C6.57979 6.31253 5.1699 8.03049 4.33733 10.0405C3.50477 12.0505 3.28693 14.2622 3.71137 16.396C4.13581 18.5298 5.18345 20.4898 6.72183 22.0282C8.26021 23.5666 10.2202 24.6142 12.354 25.0386C14.4878 25.4631 16.6995 25.2452 18.7095 24.4127C20.7195 23.5801 22.4375 22.1702 23.6462 20.3613C24.8549 18.5523 25.5 16.4256 25.5 14.25C25.5 12.8055 25.2155 11.3751 24.6627 10.0405C24.1099 8.7059 23.2996 7.49327 22.2782 6.47182C21.2567 5.45038 20.0441 4.64013 18.7095 4.08733C17.3749 3.53452 15.9445 3.25 14.5 3.25ZM14.974 9.506C15.1396 9.30366 15.3461 9.13858 15.58 9.02157C15.8138 8.90456 16.0698 8.83826 16.331 8.827C16.3523 9.0896 16.3204 9.3538 16.2372 9.6038C16.154 9.85379 16.0213 10.0845 15.847 10.282C15.6954 10.4993 15.4918 10.6752 15.2548 10.7936C15.0177 10.9121 14.7548 10.9693 14.49 10.96C14.4653 10.6973 14.4956 10.4324 14.5789 10.182C14.6622 9.93171 14.7968 9.70147 14.974 9.506ZM17.628 16.984C17.252 17.558 16.821 18.136 16.186 18.136C15.586 18.136 15.378 17.748 14.681 17.748C13.932 17.748 13.705 18.136 13.132 18.136C12.497 18.136 12.063 17.527 11.666 16.959C11.0701 16.0579 10.7382 15.0079 10.708 13.928C10.6812 13.3453 10.8155 12.7665 11.096 12.255C11.2921 11.9079 11.5726 11.616 11.9116 11.4062C12.2505 11.1965 12.6369 11.0757 13.035 11.055C13.644 11.034 14.166 11.491 14.535 11.491C15.1204 11.2992 15.7199 11.1534 16.328 11.055C16.6658 11.0538 16.9986 11.1375 17.2956 11.2984C17.5927 11.4593 17.8445 11.6923 18.028 11.976C17.7219 12.1693 17.4692 12.4362 17.2929 12.7524C17.1166 13.0686 17.0224 13.424 17.019 13.786C17.0296 14.1847 17.1527 14.5722 17.3743 14.9039C17.5959 15.2355 17.9067 15.4976 18.271 15.66C18.1264 16.1319 17.9095 16.5786 17.628 16.984Z" fill="white"/>
</svg>
