<svg width="37" height="28" viewBox="0 0 37 28" fill="none" xmlns="http://www.w3.org/2000/svg">
<path d="M4.04831 16.108C4.28764 16.163 4.53785 16.2071 4.77718 16.2401C6.23494 16.4713 7.74708 16.5264 9.20487 16.5043H27.8075C29.2653 16.5154 30.7774 16.4713 32.2352 16.2401C32.4854 16.1961 32.7247 16.152 32.964 16.108C34.3674 15.7997 35.6837 15.2712 36.4126 14.4014C36.8477 13.8729 37.0653 13.2233 36.9674 12.4306C36.9348 12.0342 36.8695 11.6598 36.7824 11.2855C36.6955 10.9111 36.5976 10.5258 36.5105 10.1294C36.1406 8.566 35.3465 5.2959 35.1072 4.3821C34.8896 3.5563 34.759 3.1379 34.6285 2.7746C33.9758 1.2552 32.2025 0.550499 30.3314 0.242199C28.6561 -0.0110011 26.3389 0.011 24.4786 0H12.24C10.3798 0.011 8.33453 -0.0220011 6.65921 0.242199C4.78806 0.561499 3.01482 1.2552 2.3621 2.7746C2.22068 3.1379 2.09013 3.5563 1.88344 4.3821C1.6441 5.2849 0.860827 8.566 0.480079 10.1294C0.382162 10.5258 0.284256 10.9111 0.208106 11.2855C0.121078 11.6598 0.0558071 12.0342 0.0231716 12.4306C-0.0747449 13.2343 0.142835 13.8839 0.577985 14.4014C1.31774 15.2822 2.63406 15.8107 4.04831 16.108ZM22.2049 6.5511L23.641 8.588H23.6627L24.805 6.5511H25.8711L24.2501 9.1055H23.1188L21.128 6.5511H22.2049ZM17.7773 6.5511H18.5388V5.9565H19.5723L19.5831 6.5401H20.5732L20.584 6.9364H19.5831L19.605 8.3788C19.605 8.599 19.8117 8.7091 20.2577 8.7091C20.3773 8.7091 20.5078 8.6981 20.6275 8.6981L20.6384 9.1165C20.4425 9.1275 20.2359 9.1385 20.0292 9.1385C18.9631 9.1385 18.5497 8.9403 18.5497 8.4338V6.9475H17.7664L17.7773 6.5511ZM14.666 5.7914C14.9488 5.6372 15.3404 5.5492 15.7538 5.5271C15.7756 5.7253 15.6342 5.9235 15.3514 6.0776C15.0794 6.2318 14.666 6.3309 14.2417 6.3199C14.2308 6.1327 14.3831 5.9455 14.666 5.7914ZM11.5111 6.8263C11.8484 6.5621 12.4358 6.3859 13.0777 6.3859C13.5564 6.3859 13.9915 6.5401 14.2852 6.5401C14.5789 6.5401 15.1011 6.3639 15.7103 6.3749C16.2434 6.3859 16.7438 6.5181 17.0484 6.7272C16.5589 6.8704 16.2434 7.1236 16.2217 7.4099C16.2108 7.7292 16.6024 8.0265 17.2116 8.1476C17.0919 8.3347 16.907 8.5109 16.6785 8.6761C16.3522 8.9183 15.9932 9.1385 15.4928 9.1385C14.9814 9.1385 14.8182 8.9843 14.2417 8.9843C13.6652 8.9843 13.4911 9.1275 12.9797 9.1385C12.4684 9.1495 12.1095 8.8853 11.8048 8.665C11.1847 8.1916 10.7932 7.3658 11.5111 6.8263ZM37 15.1941V22.8022C37 27.4595 31.5498 27.4705 27.8727 27.5366H9.12869C5.46254 27.4595 0.0122931 27.4485 0.0122931 22.7912V15.2051C0.0122931 15.1831 0.0340502 15.1831 0.0449287 15.1941C0.643257 15.9979 1.75288 16.7356 3.81985 17.187C5.15794 17.4732 6.75712 17.6164 8.71529 17.6164H28.2753C30.2335 17.6164 31.8435 17.4732 33.1816 17.187C35.2594 16.7356 36.369 15.9869 36.9565 15.1721C36.9783 15.1611 37 15.1721 37 15.1941Z" fill="white"/>
</svg>
