<svg width="41" height="48" viewBox="0 0 41 48" fill="none" xmlns="http://www.w3.org/2000/svg">
<path d="M32 4V3C32 2.73478 31.8946 2.48043 31.7071 2.29289C31.5196 2.10536 31.2652 2 31 2H3C2.73478 2 2.48043 2.10536 2.29289 2.29289C2.10536 2.48043 2 2.73478 2 3V45C2 45.2652 2.10536 45.5196 2.29289 45.7071C2.48043 45.8946 2.73478 46 3 46H10C10.0381 46.4101 10.1732 46.8053 10.394 47.1531C10.6148 47.5008 10.915 47.7911 11.27 48H3C2.20435 48 1.44129 47.6839 0.87868 47.1213C0.31607 46.5587 0 45.7956 0 45V3C0 2.20435 0.31607 1.44129 0.87868 0.87868C1.44129 0.31607 2.20435 0 3 0H31C31.7956 0 32.5587 0.31607 33.1213 0.87868C33.6839 1.44129 34 2.20435 34 3V4H32ZM38 5C38.7956 5 39.5587 5.31607 40.1213 5.87868C40.6839 6.44129 41 7.20435 41 8V45C41 45.7956 40.6839 46.5587 40.1213 47.1213C39.5587 47.6839 38.7956 48 38 48H14C13.2044 48 12.4413 47.6839 11.8787 47.1213C11.3161 46.5587 11 45.7956 11 45V8C11 7.20435 11.3161 6.44129 11.8787 5.87868C12.4413 5.31607 13.2044 5 14 5H38ZM39 8C39 7.73478 38.8946 7.48043 38.7071 7.29289C38.5196 7.10536 38.2652 7 38 7H14C13.7348 7 13.4804 7.10536 13.2929 7.29289C13.1054 7.48043 13 7.73478 13 8V45C13 45.2652 13.1054 45.5196 13.2929 45.7071C13.4804 45.8946 13.7348 46 14 46H38C38.2652 46 38.5196 45.8946 38.7071 45.7071C38.8946 45.5196 39 45.2652 39 45V8Z" fill="white"/>
</svg>
