<svg  width="39" height="49" viewBox="0 0 39 49" fill="none" xmlns="http://www.w3.org/2000/svg">
<path d="M38.0062 4.78644C38.0283 4.13737 37.9819 3.48777 37.8677 2.84844C37.7401 2.21087 37.4391 1.62086 36.9977 1.14334C36.555 0.674312 35.9877 0.341141 35.3624 0.182838C34.738 0.0423763 34.0981 -0.0175775 33.4583 0.00443842C33.3406 0.00390509 33.2218 0.00363853 33.1019 0.00363853H20.1162H19.7703C19.5393 0.00363853 19.2959 0.00453847 19.0878 0.00973847C18.7444 0.0145476 18.4017 0.0431159 18.0621 0.0952385C17.7401 0.145703 17.4256 0.235717 17.1256 0.363239C16.7931 0.506612 16.4861 0.70311 16.2166 0.945039C15.7002 1.41436 15.3379 2.02901 15.1773 2.70814C15.0788 3.13315 15.0257 3.56742 15.0189 4.00364C15.0132 4.17084 15.0089 4.33744 15.0081 4.50424C15.0062 4.76234 15.0062 5.01834 15.0062 5.27644V43.2211C14.9839 43.8702 15.0303 44.5197 15.1445 45.159C15.2721 45.7967 15.5732 46.3867 16.0145 46.8642C16.0622 46.915 16.1157 46.9564 16.1657 47.0035C16.3713 47.199 16.6012 47.367 16.8498 47.5035C17.1027 47.6423 17.3713 47.7501 17.6498 47.8246C17.9813 47.9084 18.3201 47.9597 18.6614 47.9778C18.9582 47.9973 19.2565 48.0018 19.5539 48.003C19.7393 48.0038 19.9296 48.0037 20.1167 48.003H33.3009C33.9533 48.0277 34.6064 47.9774 35.2473 47.853C35.8903 47.7118 36.4791 47.3884 36.9433 46.9216C37.4049 46.445 37.7222 45.8475 37.8587 45.1982C37.9809 44.5467 38.0303 43.8836 38.0062 43.2211V5.27644C38.0062 5.11244 38.0062 4.94734 38.0062 4.78644ZM24.0382 1.45274C24.0376 1.55236 24.0001 1.64822 23.933 1.72183C23.8659 1.79544 23.7739 1.84158 23.6747 1.85134C23.5987 1.85684 23.5226 1.84115 23.455 1.80603C23.3873 1.7709 23.3307 1.7177 23.2914 1.65234C23.258 1.59097 23.2405 1.52221 23.2405 1.45234C23.2405 1.38247 23.258 1.31371 23.2914 1.25234C23.3307 1.18703 23.3873 1.1339 23.455 1.09886C23.5227 1.06381 23.5987 1.04823 23.6747 1.05384C23.7739 1.06358 23.866 1.10976 23.9331 1.18344C24.0003 1.25711 24.0377 1.35306 24.0382 1.45274ZM24.8062 0.588639C24.8063 0.553417 24.8203 0.519644 24.8452 0.494729C24.8701 0.469814 24.9038 0.455792 24.939 0.455739H28.0235C28.0588 0.455765 28.0925 0.469779 28.1174 0.494699C28.1424 0.51962 28.1563 0.553409 28.1563 0.588639V0.609438C28.1563 0.644651 28.1423 0.678414 28.1174 0.703313C28.0925 0.728212 28.0588 0.742212 28.0235 0.742239H24.9393C24.9219 0.742265 24.9046 0.73885 24.8884 0.732189C24.8723 0.725528 24.8576 0.715752 24.8453 0.703419C24.8329 0.691086 24.8231 0.676438 24.8164 0.660313C24.8097 0.644187 24.8063 0.6269 24.8062 0.609438V0.588639ZM37.0062 5.19474V20.1247V43.2421C37.0283 43.823 36.9873 44.4046 36.8838 44.9766C36.7891 45.445 36.5625 45.8766 36.2306 46.2205C35.8991 46.5532 35.478 46.7822 35.0185 46.8796C34.4524 46.985 33.8763 47.0266 33.3009 47.0036H21.0414C20.6325 47.0036 19.9599 47.0041 19.5579 47.0036C19.2255 47.0022 18.9251 46.9955 18.6423 46.9736C18.3939 46.9578 18.1475 46.9193 17.906 46.8588C17.4621 46.7479 17.059 46.5128 16.7438 46.1809C16.4262 45.8355 16.2109 45.4085 16.122 44.9476C16.0239 44.3777 15.9851 43.7991 16.0062 43.2211V5.27644C16.0062 5.02234 16.0046 4.75774 16.0116 4.50454C16.0126 4.33514 16.0152 4.16724 16.0216 4.00384C16.0273 3.64994 16.0696 3.29757 16.1476 2.95234C16.2603 2.46622 16.5177 2.02567 16.8857 1.68874C17.0748 1.51908 17.2903 1.38134 17.5236 1.28094C17.7485 1.18585 17.9843 1.11898 18.2256 1.08184C18.5195 1.03702 18.8162 1.01283 19.1134 1.00944C19.297 1.00484 19.5101 1.00434 19.7154 1.00414H21.9454C22.0059 1.00144 22.0664 1.00462 22.1262 1.01364C22.1852 1.02257 22.2401 1.04909 22.2837 1.08974C22.3281 1.13057 22.3564 1.18583 22.3637 1.24564C22.375 1.31764 22.3837 1.55654 22.409 1.69804C22.432 1.83072 22.4777 1.95843 22.5441 2.07554C22.6504 2.26112 22.8037 2.41541 22.9885 2.52284C23.1326 2.60465 23.2917 2.65662 23.4563 2.67564C23.6225 2.69202 23.7895 2.6973 23.9563 2.69144H29.0577C29.2246 2.6973 29.3916 2.69202 29.5577 2.67564C29.7223 2.6566 29.8814 2.60464 30.0255 2.52284C30.2105 2.41541 30.3638 2.26112 30.47 2.07554C30.5365 1.95843 30.5821 1.83071 30.605 1.69804C30.6232 1.56345 30.6336 1.42793 30.6362 1.29214C30.6355 1.25349 30.6435 1.21518 30.6598 1.1801C30.676 1.14503 30.7001 1.11413 30.73 1.08974C30.7733 1.04932 30.8277 1.02281 30.8862 1.01364C30.946 1.0047 31.0065 1.00159 31.0668 1.00434H33.2586H33.4543C34.009 0.982744 34.5642 1.03146 35.1066 1.14934C35.5506 1.2603 35.9537 1.49549 36.2687 1.82734C36.5864 2.17276 36.8016 2.59975 36.8904 3.06054C36.9886 3.63089 37.0274 4.20988 37.0062 4.78824V5.19474ZM15.285 47.5483C15.2717 47.5341 15.2616 47.5177 15.2485 47.5034C15.1059 47.3466 14.975 47.1795 14.8569 47.0034H4.67094C4.54984 47.0034 4.28704 47.0034 4.16264 47.0034C3.66407 47.0232 3.16501 46.9795 2.67744 46.8734C2.28765 46.7754 1.93397 46.568 1.65804 46.2757C1.37771 45.9684 1.18809 45.5893 1.11024 45.1806C1.02201 44.6628 0.987161 44.1373 1.00624 43.6123V8.84514C1.00624 8.73334 1.00624 8.49444 1.00624 8.37984C0.982893 7.82677 1.02536 7.27289 1.13274 6.72984C1.23155 6.29952 1.45813 5.90911 1.78274 5.60984C1.94818 5.46054 2.13685 5.33922 2.34134 5.25064C2.53989 5.16636 2.74816 5.1071 2.96134 5.07424C3.22544 5.03374 3.49207 5.01192 3.75924 5.00894C3.94124 5.00434 4.15474 5.00364 4.35754 5.00364H4.52314H4.67224H6.62294C6.67802 5.00116 6.73321 5.004 6.78774 5.01214C6.84198 5.01902 6.89249 5.04343 6.93157 5.08167C6.97065 5.1199 6.99617 5.16986 7.00424 5.22394C7.01364 5.27836 7.01799 5.33352 7.01724 5.38874C7.01731 5.51261 7.02681 5.6363 7.04564 5.75874C7.06655 5.87994 7.10823 5.99662 7.16884 6.10364C7.26585 6.27306 7.40582 6.41389 7.57464 6.51194C7.70622 6.58658 7.85146 6.63399 8.00174 6.65134C8.15321 6.66636 8.30552 6.67123 8.45764 6.66594H13.5548C13.7055 6.67109 13.8562 6.66641 14.0062 6.65194V5.27644C14.0062 5.02114 14.0056 4.76044 14.0083 4.50434C14.0091 4.34064 14.0132 4.17434 14.0188 4.00434H4.67224L4.35754 4.00364C4.14634 4.00364 3.92374 4.00444 3.73334 4.00924C3.4197 4.01362 3.10674 4.03985 2.79674 4.08774C2.50265 4.13406 2.21545 4.21673 1.94174 4.33384C1.63786 4.46557 1.35751 4.64601 1.11174 4.86804C0.639679 5.29983 0.308983 5.86408 0.16294 6.48694C0.0333803 7.11431 -0.0192409 7.75513 0.00623988 8.39524V8.84524V43.6123C-0.0139732 44.2083 0.028392 44.8047 0.13264 45.3917C0.24877 45.9766 0.523446 46.5182 0.92664 46.9574C1.3302 47.3876 1.84821 47.6936 2.41974 47.8393C2.98982 47.9685 3.57416 48.0237 4.15834 48.0036C4.32764 48.0042 4.50144 48.0042 4.67224 48.0036H15.7902C15.6101 47.8654 15.4412 47.7131 15.285 47.5483ZM9.34734 4.51484C9.34734 4.48036 9.36104 4.44729 9.38542 4.42291C9.4098 4.39854 9.44286 4.38484 9.47734 4.38484H12.5359C12.553 4.38484 12.5699 4.3882 12.5857 4.39473C12.6015 4.40127 12.6158 4.41084 12.6279 4.42291C12.6399 4.43499 12.6495 4.44932 12.656 4.46509C12.6626 4.48086 12.6659 4.49777 12.6659 4.51484V4.53484C12.6659 4.55191 12.6626 4.56882 12.656 4.58459C12.6495 4.60036 12.6399 4.61469 12.6279 4.62676C12.6158 4.63883 12.6015 4.64841 12.5857 4.65494C12.5699 4.66148 12.553 4.66484 12.5359 4.66484H9.47694C9.44246 4.66484 9.4094 4.65114 9.38502 4.62676C9.36064 4.60238 9.34694 4.56932 9.34694 4.53484L9.34734 4.51484ZM7.77624 5.34784C7.8165 5.28076 7.87458 5.22616 7.94401 5.19011C8.01344 5.15406 8.09151 5.13798 8.16954 5.14364C8.27157 5.15308 8.3664 5.20029 8.43544 5.27602C8.50448 5.35174 8.54275 5.45052 8.54275 5.55299C8.54275 5.65546 8.50448 5.75424 8.43544 5.82996C8.3664 5.90568 8.27157 5.95289 8.16954 5.96234C8.09144 5.968 8.01331 5.9519 7.94381 5.91584C7.87431 5.87977 7.81617 5.82515 7.77584 5.75804C7.74173 5.69504 7.7239 5.62452 7.72397 5.55289C7.72404 5.48125 7.74201 5.41077 7.77624 5.34784Z" fill="white"/>
</svg>
