<svg width="85" height="35" viewBox="0 0 85 35" fill="none" xmlns="http://www.w3.org/2000/svg">
<path d="M47.6007 1.5004H31.7782V1.5152C31.7782 1.64608 31.7524 1.77569 31.7023 1.89661C31.6522 2.01753 31.5788 2.12739 31.4863 2.21994C31.3937 2.31248 31.2838 2.38589 31.1629 2.43597C31.042 2.48605 30.9124 2.51181 30.7815 2.5118H27.2185C27.0876 2.51181 26.958 2.48605 26.8371 2.43597C26.7162 2.38589 26.6063 2.31248 26.5137 2.21994C26.4212 2.12739 26.3478 2.01753 26.2977 1.89661C26.2476 1.77569 26.2218 1.64608 26.2218 1.5152V1.5004H10.3993L9.074 1.5016C8.5719 1.5025 8.2477 1.5037 8.0027 1.5059C7.7736 1.508 7.6171 1.5108 7.491 1.5148C7.34417 1.51763 7.1976 1.52828 7.0519 1.5467C6.96801 1.55484 6.88595 1.57627 6.8088 1.6102C6.7658 1.6306 6.7266 1.6582 6.6929 1.6918C6.65796 1.72662 6.62931 1.76722 6.6082 1.8118C6.57488 1.88801 6.55382 1.96901 6.5458 2.0518C6.52753 2.1972 6.51698 2.34348 6.5142 2.49C6.5104 2.6132 6.5076 2.77 6.5056 2.9995C6.5037 3.2429 6.5024 3.5245 6.5015 4.0279C6.5005 4.763 6.5 31.4979 6.5 31.4979H32V32.4799C32.0021 33.0296 32.1857 33.5633 32.5223 33.9979H7.2891L7.0376 34.5004H4.0029L3.7515 33.9976H1.5179C1.11533 33.9975 0.729259 33.8376 0.444606 33.5529C0.159953 33.2683 2.65147e-05 32.8822 0 32.4796L0 31.4976H5C5 31.4976 5 4.761 5.0015 4.0248C5.0024 3.5173 5.0037 3.2331 5.0056 2.9859C5.0078 2.742 5.0109 2.575 5.015 2.4406C5.01942 2.24036 5.03461 2.04051 5.0605 1.8419C5.08981 1.60582 5.15606 1.37581 5.2568 1.1603C5.4465 0.76512 5.76547 0.446574 6.1609 0.2574C6.3764 0.156768 6.60637 0.090629 6.8424 0.0614004C7.04142 0.0352803 7.24172 0.0199899 7.4424 0.0155993C7.5773 0.0111993 7.7445 0.00809902 7.9889 0.00559902C8.2365 0.00329902 8.564 0.00209877 9.0714 0.00119877C9.4141 0.000698769 9.822 0.0002 10.3986 0H47.6013C48.1779 0 48.5858 0.000698769 48.9285 0.00119877C49.4359 0.00209877 49.7634 0.00329902 50.011 0.00559902C50.2554 0.00769902 50.4226 0.0107993 50.5575 0.0155993C50.7582 0.0199899 50.9585 0.0352803 51.1575 0.0614004C51.3935 0.090629 51.6235 0.156768 51.839 0.2574C52.2344 0.446574 52.5534 0.76512 52.7431 1.1603C52.8438 1.37581 52.9101 1.60582 52.9394 1.8419C52.9653 2.04051 52.9805 2.24036 52.9849 2.4406C52.989 2.575 52.9921 2.742 52.9943 2.9859V3.0003H51.4943V2.9977C51.4923 2.7702 51.4895 2.6131 51.4856 2.4868C51.4828 2.34091 51.4722 2.19527 51.4539 2.0505C51.4458 1.96726 51.4245 1.88584 51.3908 1.8093C51.3489 1.72202 51.2783 1.65175 51.1908 1.6102C51.1136 1.57628 51.0314 1.55485 50.9475 1.5467C50.8017 1.52826 50.6551 1.51761 50.5082 1.5148C50.3824 1.5108 50.2259 1.508 49.9973 1.5059C49.7518 1.5037 49.4273 1.5025 48.9254 1.5016L47.6007 1.5004ZM85 31.4975V32.4795C85 32.8821 84.84 33.2682 84.5553 33.5529C84.2706 33.8376 83.8845 33.9975 83.4819 33.9975H81.2485L80.9971 34.5004H77.9624L77.7109 33.9975H40.2891L40.0376 34.5004H37.0029L36.7515 33.9975H34.5179C34.1153 33.9974 33.7293 33.8375 33.4446 33.5528C33.16 33.2682 33 32.8821 33 32.4795V31.4975H38C38 31.4975 38.0005 8.8039 38.0015 8.0675C38.0024 7.56 38.0037 7.2327 38.0056 6.9856C38.0078 6.7417 38.0109 6.5746 38.015 6.4402C38.0194 6.23999 38.0346 6.04017 38.0605 5.8416C38.0898 5.60548 38.156 5.37544 38.2568 5.1599C38.4465 4.76478 38.7655 4.44628 39.1609 4.2571C39.3764 4.15647 39.6064 4.09033 39.8424 4.0611C40.0414 4.03494 40.2417 4.01961 40.4424 4.0152C40.5773 4.0109 40.7445 4.0078 40.9889 4.0057C41.2365 4.0034 41.564 4.0021 42.0714 4.0013C42.4142 4.001 43.3987 4.0004 43.3987 4.0004H74.6013C75.178 4.0004 75.5857 4.001 75.9285 4.0016C76.4358 4.0024 76.7634 4.0037 77.011 4.006C77.2554 4.0081 77.4226 4.0112 77.5574 4.0155C77.7581 4.0199 77.9584 4.03523 78.1574 4.0614C78.3935 4.09059 78.6235 4.15673 78.839 4.2574C79.2345 4.44642 79.5535 4.76497 79.7431 5.1602C79.8437 5.37579 79.91 5.60581 79.9394 5.8419C79.9653 6.04047 79.9804 6.2403 79.9848 6.4405C79.9892 6.5749 79.9921 6.742 79.9948 6.9859C79.9967 7.233 79.998 7.5603 79.9989 8.0678C79.9999 8.8039 80.0004 31.4978 80.0004 31.4978L85 31.4975ZM78.5 31.4975C78.5 31.4975 78.5 8.8059 78.4985 8.0698C78.4976 7.5674 78.4963 7.2428 78.4944 6.9978C78.4924 6.7714 78.4897 6.6152 78.4856 6.4897C78.4828 6.34258 78.4722 6.1957 78.4539 6.0497C78.4457 5.96658 78.4244 5.8853 78.3906 5.8089C78.3697 5.76588 78.3419 5.72664 78.3081 5.6928C78.2742 5.65907 78.2349 5.63131 78.1917 5.6107C78.1144 5.5767 78.0321 5.5552 77.948 5.547C77.8022 5.52852 77.6555 5.51784 77.5085 5.515C77.3828 5.511 77.2263 5.5082 76.9978 5.5062C76.7522 5.5039 76.4278 5.5027 75.9258 5.5019L74.6006 5.5004H61.7782V5.5151C61.7782 5.77944 61.6732 6.03295 61.4863 6.21987C61.2994 6.40679 61.0458 6.5118 60.7815 6.5118H57.2185C56.9542 6.5118 56.7006 6.40679 56.5137 6.21987C56.3268 6.03295 56.2218 5.77944 56.2218 5.5151V5.5004H52.4989H43.3989L42.0736 5.5016C41.5715 5.5024 41.2473 5.5036 41.0023 5.5059C40.7732 5.5079 40.6167 5.5107 40.4904 5.5147C40.3437 5.51755 40.1972 5.52823 40.0516 5.5467C39.9677 5.55478 39.8856 5.57621 39.8084 5.6102C39.7654 5.63061 39.7262 5.65816 39.6925 5.6917C39.6576 5.72656 39.629 5.76715 39.6078 5.8117C39.5745 5.88792 39.5534 5.96891 39.5454 6.0517C39.5271 6.19711 39.5166 6.34338 39.5138 6.4899C39.51 6.6132 39.5072 6.7699 39.5052 6.9994C39.5033 7.2429 39.502 7.5675 39.5011 8.0708C39.5001 8.806 39.4996 31.4976 39.4996 31.4976L78.5 31.4975Z" fill="white"/>
</svg>
