<svg width="25" height="44" viewBox="0 0 25 44" fill="none" xmlns="http://www.w3.org/2000/svg">
<path d="M11.7706 41.1907L11.7711 41.618C11.7716 42.014 11.5239 42.5463 11.2206 42.8009L10.8811 43.0859C10.2659 43.0822 9.7868 43.0732 9.3759 43.0596C9.4274 42.6893 9.6395 42.2588 9.9046 42.0362L11.2181 40.9337C11.5215 40.679 11.7701 40.7947 11.7706 41.1907ZM9.9545 41.3351L11.2287 40.2124C11.5258 39.9506 11.7587 39.4126 11.7463 39.0168L11.7328 38.5894C11.7203 38.1936 11.4671 38.084 11.1699 38.3457L9.8957 39.4684C9.5986 39.7302 9.3657 40.2682 9.3781 40.664L9.3916 41.0914C9.4041 41.4872 9.6574 41.5969 9.9545 41.3351ZM11.7606 35.9787H10.9784L9.9047 36.8799C9.6014 37.1345 9.3537 37.6668 9.3542 38.0628L9.3547 38.49C9.3552 38.8861 9.6038 39.0017 9.9071 38.7471L11.2206 37.6445C11.5239 37.3899 11.7716 36.8576 11.7711 36.4616L11.7706 36.0344C11.7706 36.0117 11.7622 35.9995 11.7606 35.9787ZM9.9545 36.1788L10.1816 35.9787H9.4009C9.4332 36.3319 9.6708 36.4288 9.9545 36.1788ZM8.9333 35.9787H8.1975L8.3971 36.1462C8.6725 36.3774 8.8929 36.2906 8.9333 35.9787ZM7.0746 37.6115L8.3488 38.7341C8.646 38.9959 8.8993 38.8863 8.9117 38.4904L8.9251 38.063C8.9376 37.6672 8.7047 37.1292 8.4076 36.8674L7.3989 35.9787H6.5726C6.5724 35.9826 6.5706 35.9844 6.5705 35.9884L6.5571 36.4159C6.5446 36.8117 6.7775 37.3497 7.0746 37.6115ZM7.0861 38.3327C6.7828 38.0781 6.5342 38.1938 6.5336 38.5898L6.5331 39.0171C6.5326 39.4131 6.7803 39.9454 7.0836 40.2L8.3971 41.3026C8.7004 41.5572 8.949 41.4415 8.9495 41.0455L8.9501 40.6182C8.9506 40.2222 8.7029 39.6899 8.3996 39.4353L7.0861 38.3327ZM7.1334 40.901C6.8363 40.6392 6.583 40.7488 6.5705 41.1447L6.5571 41.5721C6.5446 41.9679 6.7775 42.5059 7.0746 42.7677L7.2404 42.9138C7.8527 42.9707 8.3269 43.0124 8.9061 43.0407C8.8605 42.6734 8.6629 42.2486 8.4076 42.0237L7.1334 40.901ZM5.576 40.9336L5.1755 41.2697L5.1882 41.3753C5.2648 41.9361 5.4492 42.2969 5.81 42.5341C5.9971 42.2615 6.1293 41.9051 6.1289 41.618L6.1284 41.1907C6.1279 40.7947 5.8793 40.679 5.576 40.9336ZM6.1041 39.0168L6.0906 38.5894C6.0781 38.1936 5.8249 38.084 5.5277 38.3457L4.8913 38.9064L5.1 40.6411L5.5866 40.2124C5.8837 39.9506 6.1166 39.4126 6.1041 39.0168ZM6.1158 35.9644C5.8845 35.9542 5.6567 35.9321 5.4324 35.8979L4.5111 36.6712C4.6329 36.9683 4.7035 37.2823 4.733 37.5895L4.8166 38.2841L5.5786 37.6445C5.8819 37.3899 6.1296 36.8576 6.1291 36.4616L6.1286 36.0344C6.1284 36.0059 6.1184 35.9899 6.1158 35.9644ZM3.7477 35.3982C3.7452 35.4343 3.7349 35.4736 3.736 35.5078L3.7422 35.7048C3.9276 35.8463 4.0925 35.9859 4.2053 36.128C4.2262 36.1543 4.2397 36.1841 4.2591 36.2111C4.2774 36.1976 4.2936 36.1953 4.3124 36.1788L4.7826 35.7645C4.4244 35.671 4.0786 35.5492 3.7477 35.3982ZM2.3769 34.5531C2.607 34.8607 2.9525 35.1288 3.2965 35.3776C3.2908 35.304 3.272 35.2256 3.2529 35.1477C2.9443 34.9729 2.6509 34.7749 2.3769 34.5531ZM20.6746 35.3945C21.0204 35.145 21.3682 34.8758 21.6037 34.5675C21.3254 34.7911 21.0284 34.992 20.7148 35.1672C20.6971 35.2442 20.6798 35.3215 20.6746 35.3945ZM19.2244 35.7627L19.6814 36.1463C19.7062 36.1671 19.7274 36.1705 19.7513 36.1864C19.7652 36.1675 19.7744 36.1465 19.7891 36.128C19.8982 35.9904 20.0561 35.8553 20.234 35.7184L20.2343 35.4619C20.2343 35.4457 20.228 35.4268 20.2272 35.4102C19.9064 35.5551 19.571 35.6718 19.2244 35.7627ZM17.8597 35.9656C17.8592 35.9746 17.8551 35.9791 17.8548 35.9884L17.8414 36.4158C17.8289 36.8116 18.0619 37.3496 18.359 37.6114L19.1726 38.3282L19.2614 37.5895C19.2906 37.2854 19.3602 36.9748 19.4795 36.6802L18.588 35.8947C18.3492 35.9319 18.1065 35.9556 17.8597 35.9656ZM17.818 38.5897L17.8174 39.017C17.8169 39.413 18.0646 39.9453 18.3679 40.1999L18.8943 40.6418L19.0985 38.9438L18.3704 38.3327C18.0671 38.078 17.8185 38.1937 17.818 38.5897ZM17.9133 41.1056L17.8998 41.533C17.8909 41.8141 18.0091 42.1637 18.1829 42.4385C18.5165 42.2124 18.7362 41.8864 18.8061 41.3753L18.8303 41.1741L18.4761 40.862C18.179 40.6002 17.9257 40.7098 17.9133 41.1056ZM16.8604 40.9336L15.5469 42.0361C15.2791 42.261 15.0651 42.6983 15.0166 43.0711C15.6903 43.0511 16.2439 43.009 16.7156 42.9245L16.8629 42.8008C17.1662 42.5462 17.4139 42.0139 17.4134 41.6179L17.4128 41.1906C17.4122 40.7947 17.1636 40.679 16.8604 40.9336ZM15.5967 41.3351L16.8709 40.2124C17.1681 39.9506 17.4009 39.4126 17.3885 39.0168L17.3751 38.5894C17.3626 38.1936 17.1093 38.084 16.8122 38.3457L15.538 39.4684C15.2409 39.7302 15.008 40.2682 15.0204 40.664L15.0339 41.0914C15.0463 41.4872 15.2996 41.5969 15.5967 41.3351ZM17.4027 35.9787H16.6205L15.5468 36.8799C15.2435 37.1345 14.9958 37.6668 14.9963 38.0628L14.9968 38.49C14.9973 38.8861 15.2459 39.0017 15.5492 38.7471L16.8627 37.6445C17.166 37.3899 17.4137 36.8576 17.4132 36.4616L17.4126 36.0344C17.4127 36.0117 17.4044 35.9995 17.4027 35.9787ZM15.5967 36.1788L15.8238 35.9787H15.0431C15.0753 36.3319 15.3129 36.4288 15.5967 36.1788ZM14.5755 35.9787H13.8397L14.0393 36.1462C14.3146 36.3774 14.535 36.2906 14.5755 35.9787ZM12.7168 37.6115L13.991 38.7341C14.2881 38.9959 14.5414 38.8863 14.5539 38.4904L14.5674 38.063C14.5799 37.6672 14.3469 37.1292 14.0498 36.8674L13.0411 35.9787H12.2147C12.2145 35.9826 12.2127 35.9844 12.2126 35.9884L12.1992 36.4158C12.1868 36.8117 12.4197 37.3497 12.7168 37.6115ZM12.7283 38.3327C12.425 38.0781 12.1764 38.1938 12.1759 38.5898L12.1753 39.0171C12.1748 39.4131 12.4225 39.9454 12.7258 40.2L14.0393 41.3026C14.3426 41.5572 14.5912 41.4415 14.5917 41.0455L14.5923 40.6182C14.5928 40.2222 14.3451 39.6899 14.0418 39.4353L12.7283 38.3327ZM12.7756 40.901C12.4785 40.6392 12.2251 40.7488 12.2127 41.1447L12.1993 41.5721C12.1868 41.9679 12.4197 42.5059 12.7168 42.7677L13.0823 43.0898C13.6264 43.0903 14.1146 43.0888 14.5527 43.0819C14.5183 42.7059 14.3147 42.2571 14.0498 42.0237L12.7756 40.901ZM10.8812 0.00401588C10.2661 0.00771588 9.7869 0.0167158 9.376 0.0303158C9.4275 0.400616 9.6396 0.831216 9.9047 1.05372L11.2182 2.15632C11.5215 2.41092 11.7701 2.29522 11.7706 1.89922L11.7711 1.47192C11.7716 1.07592 11.5239 0.543616 11.2206 0.289016L10.8812 0.00401588ZM11.1699 4.74412C11.467 5.00592 11.7203 4.89622 11.7328 4.50042L11.7463 4.07302C11.7588 3.67722 11.5258 3.13922 11.2287 2.87742L9.9545 1.75482C9.6574 1.49302 9.4041 1.60262 9.3917 1.99842L9.3782 2.42582C9.3657 2.82162 9.5987 3.35962 9.8958 3.62142L11.1699 4.74412ZM9.9072 4.34272C9.6039 4.08812 9.3553 4.20382 9.3548 4.59982L9.3543 5.02712C9.3538 5.42312 9.6014 5.95542 9.9048 6.21002L10.9921 7.12272H11.7586C11.7609 7.09802 11.7707 7.08282 11.7707 7.05552L11.7712 6.62822C11.7717 6.23222 11.524 5.69992 11.2207 5.44532L9.9072 4.34272ZM9.9545 6.91102C9.6673 6.65792 9.4258 6.75842 9.3985 7.12262H10.1947L9.9545 6.91102ZM8.3971 6.94362L8.1838 7.12262H8.9354C8.8995 6.80042 8.6761 6.70952 8.3971 6.94362ZM8.3488 4.35572L7.0746 5.47842C6.7775 5.74022 6.5446 6.27822 6.5571 6.67402L6.5705 7.10142C6.5707 7.11012 6.5745 7.11422 6.575 7.12262H7.3859L8.4076 6.22242C8.7047 5.96062 8.9376 5.42262 8.9251 5.02682L8.9117 4.59942C8.8993 4.20362 8.646 4.09392 8.3488 4.35572ZM8.3971 1.78742L7.0836 2.88992C6.7803 3.14452 6.5326 3.67682 6.5331 4.07282L6.5336 4.50012C6.5341 4.89612 6.7827 5.01182 7.0861 4.75722L8.3996 3.65462C8.7029 3.40002 8.9506 2.86772 8.9501 2.47172L8.9495 2.04442C8.949 1.64842 8.7004 1.53282 8.3971 1.78742ZM7.1334 2.18882L8.4076 1.06622C8.6628 0.841316 8.8605 0.416516 8.9061 0.0492158C8.3269 0.0776158 7.8527 0.119216 7.2404 0.176116L7.0746 0.322116C6.7775 0.583916 6.5446 1.12192 6.5571 1.51782L6.5705 1.94522C6.583 2.34092 6.8363 2.45062 7.1334 2.18882ZM5.1883 1.71452L5.1756 1.82012L5.576 2.15622C5.8793 2.41082 6.1279 2.29512 6.1284 1.89912L6.129 1.47192C6.1294 1.18492 5.9972 0.828416 5.8101 0.555816C5.4493 0.793016 5.2649 1.15372 5.1883 1.71452ZM6.0906 4.50042L6.1041 4.07302C6.1166 3.67722 5.8836 3.13922 5.5865 2.87742L5.1 2.44872L4.8914 4.18342L5.5278 4.74412C5.8249 5.00592 6.0782 4.89622 6.0906 4.50042ZM4.8166 4.80562L4.733 5.50032C4.7035 5.80762 4.6328 6.12152 4.5111 6.41862L5.444 7.20162C5.6639 7.16862 5.887 7.14712 6.1137 7.13702C6.1171 7.10782 6.1284 7.08862 6.1285 7.05532L6.129 6.62802C6.1295 6.23202 5.8818 5.69972 5.5785 5.44512L4.8166 4.80562ZM4.7927 7.33422L4.3124 6.91102C4.2937 6.89452 4.2774 6.89232 4.2591 6.87882C4.2397 6.90582 4.2261 6.93562 4.2053 6.96192C4.0926 7.10412 3.9276 7.24362 3.7422 7.38512L3.736 7.58212C3.7348 7.61972 3.7458 7.66272 3.7489 7.70262C4.0825 7.55042 4.4313 7.42792 4.7927 7.33422ZM2.3461 8.56942V8.57141C2.6278 8.34042 2.9315 8.13602 3.2505 7.95532C3.2714 7.87282 3.2905 7.79012 3.2965 7.71242C2.9396 7.97032 2.5752 8.24691 2.3461 8.56942ZM21.6413 8.56192C21.4067 8.23592 21.036 7.95612 20.6746 7.69532C20.6801 7.77242 20.6977 7.85412 20.7171 7.93552C21.0436 8.11802 21.3533 8.32701 21.6413 8.56192ZM19.7892 6.96192C19.7745 6.94342 19.7653 6.92232 19.7514 6.90342C19.7275 6.91932 19.7062 6.92282 19.6815 6.94362L19.2141 7.33602C19.5639 7.42712 19.9022 7.54442 20.226 7.69052C20.2272 7.67032 20.2345 7.64762 20.2345 7.62802L20.2342 7.37152C20.0562 7.23462 19.8983 7.09952 19.7892 6.96192ZM17.8414 6.67402L17.8548 7.10142C17.8552 7.11552 17.8611 7.12252 17.8621 7.13582C18.1042 7.14572 18.3424 7.16882 18.5768 7.20482L19.4794 6.40952C19.3601 6.11492 19.2905 5.80432 19.2613 5.50022L19.1724 4.76142L18.3589 5.47832C18.0619 5.74022 17.829 6.27822 17.8414 6.67402ZM18.3704 4.75722L19.0985 4.14602L18.8943 2.44802L18.3679 2.88992C18.0646 3.14452 17.8169 3.67682 17.8174 4.07282L17.818 4.50012C17.8185 4.89612 18.0671 5.01182 18.3704 4.75722ZM18.4761 2.22792L18.8303 1.91582L18.8061 1.71462C18.7362 1.20342 18.5165 0.877416 18.1829 0.651316C18.0091 0.926016 17.8908 1.27572 17.8997 1.55692L17.9132 1.98432C17.9257 2.38002 18.179 2.48972 18.4761 2.22792ZM16.7156 0.165316C16.2439 0.0808156 15.6903 0.0386157 15.0166 0.0186157C15.0651 0.391516 15.2791 0.828816 15.5469 1.05362L16.8604 2.15622C17.1637 2.41082 17.4123 2.29512 17.4128 1.89912L17.4134 1.47182C17.4139 1.07582 17.1662 0.543516 16.8629 0.288916L16.7156 0.165316ZM16.8121 4.74412C17.1092 5.00592 17.3625 4.89622 17.375 4.50042L17.3884 4.07302C17.4009 3.67722 17.168 3.13922 16.8708 2.87742L15.5966 1.75472C15.2995 1.49292 15.0462 1.60252 15.0337 1.99842L15.0202 2.42582C15.0077 2.82162 15.2407 3.35962 15.5378 3.62142L16.8121 4.74412ZM15.5493 4.34272C15.246 4.08812 14.9974 4.20382 14.9969 4.59982L14.9964 5.02712C14.9959 5.42312 15.2436 5.95542 15.5469 6.21002L16.6342 7.12272H17.4007C17.403 7.09802 17.4128 7.08282 17.4128 7.05552L17.4134 6.62822C17.4139 6.23222 17.1662 5.69992 16.8629 5.44532L15.5493 4.34272ZM15.5967 6.91102C15.3095 6.65792 15.068 6.75842 15.0407 7.12262H15.8369L15.5967 6.91102ZM14.0392 6.94362L13.8259 7.12262H14.5775C14.5416 6.80042 14.3182 6.70952 14.0392 6.94362ZM13.991 4.35572L12.7168 5.47842C12.4197 5.74022 12.1868 6.27822 12.1993 6.67402L12.2127 7.10142C12.2129 7.11012 12.2167 7.11422 12.2172 7.12262H13.0281L14.0498 6.22242C14.3469 5.96062 14.5798 5.42262 14.5674 5.02682L14.5539 4.59942C14.5414 4.20362 14.2881 4.09392 13.991 4.35572ZM14.0392 1.78742L12.7257 2.88992C12.4224 3.14452 12.1747 3.67682 12.1752 4.07282L12.1758 4.50012C12.1763 4.89612 12.4249 5.01182 12.7282 4.75722L14.0417 3.65462C14.345 3.40002 14.5927 2.86772 14.5922 2.47172L14.5916 2.04442C14.5912 1.64842 14.3426 1.53282 14.0392 1.78742ZM12.7756 2.18882L14.0498 1.06622C14.3147 0.832816 14.5183 0.383916 14.5527 0.00801559C14.1147 0.00111559 13.6266 -0.000484169 13.0824 0.000115831L12.7167 0.322216C12.4196 0.584015 12.1867 1.12202 12.1992 1.51782L12.2126 1.94522C12.2252 2.34092 12.4785 2.45062 12.7756 2.18882ZM24.9996 18.62H24V29.5788C24 31.5972 23.0635 33.3947 21.6037 34.5676C21.3254 34.7912 21.0284 34.9921 20.7148 35.1673C20.5567 35.2557 20.3934 35.3353 20.2274 35.4102C19.9064 35.5551 19.571 35.6718 19.2245 35.7627C19.0162 35.8173 18.8041 35.8613 18.5881 35.8948C18.3493 35.9319 18.1066 35.9557 17.8598 35.9656C17.7729 35.9691 17.6877 35.9787 17.6 35.9787H6.5726H6.4C6.3041 35.9787 6.2108 35.9685 6.1159 35.9644C5.8846 35.9542 5.6568 35.9321 5.4325 35.8979C5.2119 35.8643 4.9953 35.82 4.7827 35.7645C4.4245 35.6711 4.0787 35.5492 3.7478 35.3982C3.579 35.3211 3.4135 35.2387 3.2529 35.1477C2.9443 34.9729 2.6509 34.775 2.3769 34.5532C0.9279 33.3798 0 31.5885 0 29.5788V13.5226C0 11.5268 0.9142 9.74502 2.3461 8.57131C2.6278 8.34031 2.9315 8.13592 3.2505 7.95522C3.4122 7.86352 3.5789 7.78022 3.749 7.70262C4.0826 7.55042 4.4314 7.42792 4.7928 7.33432C5.0059 7.27912 5.223 7.23502 5.4441 7.20172C5.664 7.16872 5.8871 7.14722 6.1138 7.13712C6.2093 7.13292 6.3033 7.12262 6.4 7.12262H6.5751H17.6C17.6885 7.12262 17.7746 7.13232 17.8622 7.13582C18.1043 7.14572 18.3425 7.16882 18.5769 7.20482C18.7931 7.23802 19.0055 7.28162 19.214 7.33592C19.5638 7.42702 19.9021 7.54432 20.2259 7.69042C20.3933 7.76592 20.5577 7.84632 20.7171 7.93542C21.0436 8.11802 21.3533 8.32692 21.6413 8.56182C23.0801 9.73552 24 11.5211 24 13.5226V13.7638H24.9996V18.62ZM23 18.62H22.9996V13.7639H23V13.5227C23 11.8025 22.1887 10.2712 20.9318 9.28162C20.6015 9.02162 20.2403 8.80062 19.8547 8.62242C19.3581 8.39302 18.8224 8.23602 18.2587 8.16712C18.0423 8.14062 17.8235 8.12271 17.6001 8.12271H6.4C6.1643 8.12271 5.9338 8.14312 5.706 8.17251C5.1484 8.24451 4.6186 8.40191 4.1274 8.63111C3.7486 8.80791 3.3933 9.02581 3.0683 9.28171C1.8113 10.2712 1 11.8025 1 13.5226V29.5787C1 31.292 1.8046 32.8183 3.0529 33.8083C3.3801 34.0678 3.7383 34.288 4.1203 34.4669C4.6109 34.6966 5.1402 34.8546 5.6972 34.9275C5.9278 34.9577 6.1613 34.9786 6.4 34.9786H17.6C17.8266 34.9786 18.0484 34.96 18.2677 34.9328C18.8308 34.8629 19.3659 34.7054 19.8618 34.4754C20.2506 34.295 20.6148 34.0717 20.9471 33.8082C22.1954 32.8183 23 31.292 23 29.5788V18.62Z" fill="white"/>
</svg>
