<?xml version="1.0" encoding="UTF-8"?>
<svg xmlns="http://www.w3.org/2000/svg" xmlns:xlink="http://www.w3.org/1999/xlink" width="22px" height="22px" viewBox="0 0 22 22" version="1.1">
<g id="surface1">
<path style=" stroke:none;fill-rule:nonzero;fill:rgb(0%,0%,0%);fill-opacity:1;" d="M 21.65625 11 C 21.65625 5.113281 16.886719 0.34375 11 0.34375 C 5.113281 0.34375 0.34375 5.113281 0.34375 11 C 0.34375 16.320312 4.242188 20.726562 9.335938 21.527344 L 9.335938 14.082031 L 6.628906 14.082031 L 6.628906 11 L 9.335938 11 L 9.335938 8.652344 C 9.335938 5.980469 10.925781 4.507812 13.359375 4.507812 C 14.527344 4.507812 15.746094 4.714844 15.746094 4.714844 L 15.746094 7.335938 L 14.402344 7.335938 C 13.078125 7.335938 12.664062 8.15625 12.664062 9 L 12.664062 11 L 15.621094 11 L 15.148438 14.082031 L 12.664062 14.082031 L 12.664062 21.527344 C 17.757812 20.726562 21.65625 16.320312 21.65625 11 Z M 21.65625 11 "/>
</g>
</svg>
