<?xml version="1.0" encoding="UTF-8"?>
<svg xmlns="http://www.w3.org/2000/svg" xmlns:xlink="http://www.w3.org/1999/xlink" width="25px" height="22px" viewBox="0 0 24 22" version="1.1">
<g id="surface1">
<path style=" stroke:none;fill-rule:nonzero;fill:rgb(0%,0%,0%);fill-opacity:1;" d="M 22.902344 5.332031 C 22.640625 4.316406 21.871094 3.515625 20.890625 3.242188 C 19.117188 2.75 12 2.75 12 2.75 C 12 2.75 4.882812 2.75 3.109375 3.242188 C 2.128906 3.515625 1.359375 4.316406 1.097656 5.332031 C 0.621094 7.171875 0.621094 11.015625 0.621094 11.015625 C 0.621094 11.015625 0.621094 14.859375 1.097656 16.703125 C 1.359375 17.71875 2.128906 18.484375 3.109375 18.757812 C 4.882812 19.25 12 19.25 12 19.25 C 12 19.25 19.117188 19.25 20.890625 18.757812 C 21.871094 18.484375 22.640625 17.71875 22.902344 16.703125 C 23.378906 14.859375 23.378906 11.015625 23.378906 11.015625 C 23.378906 11.015625 23.378906 7.171875 22.902344 5.332031 Z M 9.671875 14.507812 L 9.671875 7.527344 L 15.621094 11.015625 Z M 9.671875 14.507812 "/>
</g>
</svg>
